<?xml version="1.0" encoding="utf-8"?>
<!-- Generator: Adobe Illustrator 24.0.0, SVG Export Plug-In . SVG Version: 6.00 Build 0)  -->
<svg version="1.1" id="Layer_1" xmlns="http://www.w3.org/2000/svg" xmlns:xlink="http://www.w3.org/1999/xlink" x="0px" y="0px"
	 viewBox="0 0 2568 643" style="enable-background:new 0 0 2568 643;" xml:space="preserve">
<style type="text/css">
	.st0{fill:#FFFFFF;}
	.st1{fill-rule:evenodd;clip-rule:evenodd;}
</style>
<rect class="st0" width="2568" height="643"/>
<path d="M931.1,341h82.5c11.6,0,21,9.5,21,21.1c0,11.7-9.4,21.1-21,21.1h-99.5c-1.6,0-3.1,0.6-4.2,1.6l-30,25.9
	c-4.6,4-1.8,11.5,4.2,11.5h124.5c0,0,0.1,0,0.1-0.1c0-0.1,0.1-0.1,0.1-0.1c1.6,0.1,3.1,0.2,4.7,0.2c33,0,59.8-26.9,59.8-60.1
	c0-31.5-24.1-57.4-54.9-59.9c0,0-0.1,0-0.1-0.1c0-0.1,0-0.1-0.1-0.1h-88.8c-11.6,0-21-9.5-21-21.1c0-11.7,9.4-21.1,21-21.1h99.3
	c1.6,0,3.2-0.6,4.4-1.7l27.9-25.9c4.4-4.1,1.5-11.4-4.4-11.4H931.1c0,0,0,0,0,0s0,0,0,0c-0.5,0-1.1,0-1.6,0
	c-33,0-59.8,26.9-59.8,60.1c0,33.2,26.8,60.1,59.8,60.1C930,341,930.5,341,931.1,341C931.1,341,931.1,341,931.1,341
	C931.1,341,931.1,341,931.1,341z"/>
<path d="M1411.3,220.7c-3.6,0-6.5,2.9-6.5,6.6v188.4c0,3.6,2.9,6.6,6.5,6.6h151c1.8,0,3.5-0.8,4.8-2.1l18.9-20.3
	c3.9-4.2,1-11.1-4.8-11.1h-131.8c-3.6,0-6.5-2.9-6.5-6.6v-155c0-3.6-2.9-6.6-6.5-6.6H1411.3z"/>
<path class="st1" d="M1169.5,220.7C1169.5,220.7,1169.5,220.7,1169.5,220.7C1169.5,220.8,1169.5,220.8,1169.5,220.7
	c-19.3,0.9-34.8,16.4-35.7,35.7c0,0,0,0,0,0s0,0,0,0c0,0,0,0,0,0v126.7c0,0,0,0,0,0s0,0,0,0c0,0.5,0,1.1,0,1.6
	c0,20.1,15.8,36.5,35.7,37.3c0,0,0,0,0,0v0l0,0c0,0,0,0,0,0h137c0,0,0,0,0,0l0,0v0l0,0c19.8-0.9,35.7-17.3,35.7-37.3
	c0-0.5,0-1.1,0-1.6c0,0,0,0,0,0s0,0,0,0V256.5c0,0,0,0,0,0s0,0,0,0c-0.8-19.3-16.3-34.9-35.6-35.7c0,0,0,0,0,0c0,0,0,0,0,0H1169.5z
	 M1195.1,256.5L1195.1,256.5L1195.1,256.5C1195,256.5,1195,256.5,1195.1,256.5c-12.1,0.5-21.8,10.3-22.3,22.5c0,0,0,0,0,0
	c0,0,0,0,0,0v79.7c0,0,0,0,0,0c0,0,0,0,0,0c0,0.3,0,0.7,0,1c0,12.6,9.9,23,22.3,23.5c0,0,0,0,0,0l0,0v0v0h85.9v0l0,0v0c0,0,0,0,0,0
	c12.4-0.5,22.3-10.9,22.3-23.5c0-0.3,0-0.7,0-1v0v0l0,0c0,0,0,0,0,0V279c0,0,0,0,0,0s0,0,0,0c-0.5-12.2-10.2-21.9-22.3-22.5
	c0,0,0,0,0,0v0v0l0,0H1195.1z"/>
<path class="st1" d="M1805.5,415.7c0,3.6,2.9,6.6,6.5,6.6h25.6c3.6,0,6.5-2.9,6.5-6.6V259.8c0,0,0,0,0,0l0,0l0,0c0,0,0,0,0,0
	c0-0.5,0-1.1,0-1.6c0-20.1-15.7-36.5-35.3-37.3c0,0,0,0,0,0c0,0,0,0,0,0h-131.5c0,0,0,0,0,0c0,0,0,0,0,0c-0.5,0-1.1,0-1.6,0
	c-20.4,0-36.9,16.7-36.9,37.4c0,0.5,0,1.1,0,1.6c0,0,0,0,0,0s0,0,0,0v155.9c0,3.6,2.9,6.6,6.5,6.6h25.6c3.6,0,6.5-2.9,6.5-6.6v-64.9
	c0-3.6,2.9-6.6,6.5-6.6h115.4c3.6,0,6.5,2.9,6.5,6.6V415.7z M1677.2,308.4V276c0-12.6,10.1-22.8,22.5-22.8h83.4
	c12.4,0,22.5,10.2,22.5,22.8v32.4c0,3.6-2.9,6.6-6.5,6.6h-115.4C1680.1,315,1677.2,312.1,1677.2,308.4z"/>
<path class="st1" d="M2346,422.3c-3.6,0-6.5-2.9-6.5-6.6v-64.9c0-3.6-2.9-6.6-6.5-6.6h-116.7c-3.6,0-6.5,2.9-6.5,6.6v64.9
	c0,3.6-2.9,6.6-6.5,6.6h-25.8c-3.6,0-6.5-2.9-6.5-6.6V259.8v0v0c0,0,0,0,0,0c0,0,0,0,0,0c0-0.5,0-1.1,0-1.6
	c0-20.6,16.7-37.4,37.3-37.4c0.5,0,1.1,0,1.6,0c0,0,0,0,0,0c0,0,0,0,0,0h132.9c0,0,0,0,0,0c0,0,0,0,0,0
	c19.8,0.9,35.7,17.3,35.7,37.3c0,0.5,0,1.1,0,1.6c0,0,0,0,0,0s0,0,0,0c0,0,0,0,0,0v155.9c0,3.6-2.9,6.6-6.5,6.6H2346z M2209.8,276
	v32.4c0,3.6,2.9,6.6,6.5,6.6H2333c3.6,0,6.5-2.9,6.5-6.6V276c0-12.6-10.2-22.8-22.7-22.8h-84.3
	C2219.9,253.2,2209.8,263.4,2209.8,276z"/>
<path d="M1940.5,220.7c1.9,0,3.7,0.8,4.9,2.3l114.8,136.9c3.9,4.6,11.4,1.8,11.4-4.3V227.3c0-3.6,2.9-6.6,6.5-6.6h25.6
	c3.6,0,6.5,2.9,6.5,6.6v188.4c0,3.6-2.9,6.6-6.5,6.6h-31.8c-0.1,0-0.2-0.1-0.2-0.2c0-0.1,0-0.1-0.1-0.2l-116.8-135.9
	c-3.9-4.6-11.4-1.7-11.4,4.3v125.5c0,3.6-2.9,6.6-6.5,6.6h-25.8c-3.6,0-6.5-2.9-6.5-6.6V227.3c0-3.6,2.9-6.6,6.5-6.6H1940.5z"/>
<path d="M274.4,429.2c3.2-3.2,7.5-5,12-5h416.5c7.6,0,11.4,9.2,6,14.5L626.6,521c-3.2,3.2-7.5,5-12,5H198.1c-7.6,0-11.4-9.2-6-14.5
	L274.4,429.2z"/>
<path d="M274.4,122c3.2-3.2,7.5-5,12-5h416.5c7.6,0,11.4,9.2,6,14.5l-82.3,82.2c-3.2,3.2-7.5,5-12,5H198.1c-7.6,0-11.4-9.2-6-14.5
	L274.4,122z"/>
<path d="M626.6,274.6c-3.2-3.2-7.5-5-12-5H198.1c-7.6,0-11.4,9.2-6,14.5l82.3,82.2c3.2,3.2,7.5,5,12,5h416.5c7.6,0,11.4-9.2,6-14.5
	L626.6,274.6z"/>
</svg>
